<svg id="Layer_1" data-name="Layer 1" xmlns="http://www.w3.org/2000/svg" xmlns:xlink="http://www.w3.org/1999/xlink" viewBox="0 0 1180 410"><defs><style>.cls-1{fill:#96b9e3;}.cls-2{fill:#ccddfc;}.cls-3{fill:#264d86;}.cls-4{fill:#e1edff;}.cls-5{fill:#f5f5ff;}.cls-6{fill:#468df5;}.cls-7{fill:#ffb502;}.cls-8{fill:#1b2044;}.cls-25,.cls-26,.cls-9{fill:#fff;}.cls-10{fill:#ff2363;}.cls-11{fill:#ffcf03;}.cls-12{fill:#fbc6b4;}.cls-13{fill:#1b416d;}.cls-14{fill:#c40c53;}.cls-15,.cls-19{fill:#fd3434;}.cls-16{fill:#ee9d7f;}.cls-17{fill:#eda503;}.cls-18{fill:#15122c;}.cls-19{font-size:15px;}.cls-19,.cls-25,.cls-26{font-family:Roboto-Bold, Roboto;font-weight:700;}.cls-20{letter-spacing:-0.01em;}.cls-21{letter-spacing:-0.01em;}.cls-22{fill:url(#linear-gradient);}.cls-23{fill:url(#linear-gradient-2);}.cls-24{fill:url(#linear-gradient-3);}.cls-25,.cls-26{isolation:isolate;font-size:5.7px;}.cls-26{letter-spacing:-0.01em;}</style><linearGradient id="linear-gradient" x1="79.73" y1="-70.49" x2="13.93" y2="-25.08" gradientTransform="translate(0 92)" gradientUnits="userSpaceOnUse"><stop offset="0.41" stop-color="#0cf"/><stop offset="1" stop-color="#ba03f1"/></linearGradient><linearGradient id="linear-gradient-2" x1="84.1" y1="-50.22" x2="16.24" y2="-4.18" gradientTransform="translate(0 92)" gradientUnits="userSpaceOnUse"><stop offset="0" stop-color="#0cf"/><stop offset="1" stop-color="#09f"/></linearGradient><linearGradient id="linear-gradient-3" x1="63.68" y1="-52.38" x2="35.71" y2="-21.37" gradientTransform="translate(0 92)" gradientUnits="userSpaceOnUse"><stop offset="0" stop-color="#fd3434"/><stop offset="1" stop-color="#fd3434"/></linearGradient></defs><title>Untitled-3</title><path class="cls-1" d="M1139,390.93c0,8.32-247.59,15.07-553,15.07S33,399.25,33,390.93s247.59-15.08,553-15.08S1139,382.6,1139,390.93Z"/><path class="cls-2" d="M283,263.91c-7.1-5.13-10.87-13.89-9.46-21.3.88-4.64,16.91-12.71,16.91-12.71l-23.9-21.14s-11.22,12.37-17,12.69c-8.77.53-18.69-3.14-24-9.1-3.39-3.79,1-18.7,1-18.7l-35.32-1.24s2.76,15.18-1,18.7c-5.21,4.88-14.5,7.34-22.08,6.11-5.65-.91-14.79-14.32-14.79-14.32l-27.06,18.48S141,231,141.18,235.71c.24,7.84-4.88,16.5-13,21.19-4.7,2.72-23-1-23-1l-2,28.7s18.65-2.08,22.93,1c7.1,5.17,10.88,13.92,9.45,21.33-.87,4.63-16.91,12.7-16.91,12.7l23.9,21.13s11.21-12.36,16.95-12.68c8.75-.51,18.72,3.16,24.06,9.1,3.39,3.8-1,18.7-1,18.7l35.29,1.24s-2.81-15.18,1-18.7c5.22-4.87,14.53-7.36,22.12-6.12,5.62.94,14.77,14.33,14.77,14.33l27-18.48s-14.63-9.66-14.8-14.34c-.22-7.83,4.89-16.48,13-21.19,4.7-2.7,23,1.07,23,1.07L306,265S287.33,267,283,263.91ZM202.1,321.67c-32.28-1.14-57.34-23.35-55.93-49.61s28.69-46.64,61-45.52,57.34,23.35,55.91,49.62S234.39,322.79,202.1,321.67Z"/><path class="cls-2" d="M206.56,238.4c-24.68-.86-45.55,14.71-46.61,34.79s18.07,37,42.73,37.91,45.55-14.7,46.62-34.78S231.23,239.28,206.56,238.4Zm-2.93,54c-12.45-.44-22.11-9-21.59-19.12s11.08-18,23.51-17.53,22.1,9,21.57,19.12S216.07,292.87,203.63,292.43Z"/><path class="cls-2" d="M1003,354.17c0,5.4-5.64,9.78-12.64,9.78H712.33c-7,0-12.65-4.38-12.65-9.78V219.65c0-5.4,5.65-9.77,12.65-9.77H990.39c7,0,12.64,4.37,12.64,9.77Z"/><path class="cls-3" d="M990.39,209.88H712.33c-7,0-12.65,4.37-12.65,9.77v18.14H1003V219.65C1003,214.25,997.39,209.88,990.39,209.88Z"/><path class="cls-2" d="M944.59,229.52c-4,0-7.24-2.51-7.24-5.6s3.24-5.61,7.24-5.61,7.21,2.52,7.21,5.61S948.57,229.52,944.59,229.52Zm0-9.69c-3,0-5.38,1.84-5.38,4.09s2.41,4.08,5.38,4.08,5.34-1.83,5.34-4.08S947.54,219.83,944.59,219.83Z"/><path class="cls-2" d="M963.66,229.52c-4,0-7.22-2.51-7.22-5.6s3.25-5.61,7.22-5.61,7.22,2.52,7.22,5.61S967.65,229.52,963.66,229.52Zm0-9.69c-2.94,0-5.34,1.84-5.34,4.09s2.4,4.08,5.34,4.08,5.36-1.83,5.36-4.08S966.63,219.83,963.66,219.83Z"/><path class="cls-2" d="M982.19,229.52c-4,0-7.21-2.51-7.21-5.6s3.23-5.61,7.21-5.61,7.22,2.52,7.22,5.61S986.16,229.52,982.19,229.52Zm0-9.69c-3,0-5.35,1.84-5.35,4.09s2.4,4.08,5.35,4.08,5.35-1.83,5.35-4.08S985.13,219.83,982.19,219.83Z"/><rect class="cls-4" x="716.86" y="246.31" width="266.22" height="98.9"/><path class="cls-5" d="M209.64,229.32c0,5.59,5.84,10.13,13.08,10.13H510.5c7.26,0,13.09-4.54,13.09-10.13V90.1c0-5.59-5.83-10.11-13.09-10.11H222.72c-7.24,0-13.08,4.52-13.08,10.11Z"/><path class="cls-6" d="M222.72,80H510.5c7.26,0,13.09,4.52,13.09,10.11v18.78h-314V90.1C209.64,84.51,215.48,80,222.72,80Z"/><path class="cls-2" d="M262.66,94.52c0-3.2,3.35-5.8,7.47-5.8s7.48,2.6,7.48,5.8-3.35,5.8-7.48,5.8S262.66,97.72,262.66,94.52Zm1.93,0c0,2.33,2.48,4.23,5.54,4.23s5.56-1.9,5.56-4.23-2.49-4.24-5.56-4.24S264.59,92.19,264.59,94.52Z"/><path class="cls-2" d="M242.91,94.52c0-3.2,3.35-5.8,7.48-5.8s7.47,2.6,7.47,5.8-3.37,5.8-7.47,5.8S242.91,97.72,242.91,94.52Zm1.92,0c0,2.33,2.49,4.23,5.56,4.23s5.53-1.9,5.53-4.23-2.49-4.24-5.53-4.24S244.83,92.19,244.83,94.52Z"/><path class="cls-2" d="M223.75,94.52c0-3.2,3.34-5.8,7.46-5.8s7.46,2.6,7.46,5.8-3.34,5.8-7.46,5.8S223.75,97.72,223.75,94.52Zm1.92,0c0,2.33,2.49,4.23,5.54,4.23s5.53-1.9,5.53-4.23-2.48-4.24-5.53-4.24S225.67,92.19,225.67,94.52Z"/><rect class="cls-2" x="230.29" y="117.7" width="275.53" height="102.36"/><path class="cls-7" d="M927.68,101.63l.56,3.41s2.77-.29,5.51-.72,5.57-1,5.57-1L938.14,100s-2.51.54-5.16.93S927.68,101.63,927.68,101.63Z"/><path class="cls-7" d="M911.73,102.26l-.14,3.45s2.8.14,5.61,0,5.6-.22,5.6-.22l-.35-3.44s-2.67.12-5.36.22S911.73,102.26,911.73,102.26Z"/><path class="cls-7" d="M896,100.6,895,104l5.53.91c2.77.38,5.59.56,5.59.56l.4-3.43s-2.67-.18-5.3-.51Z"/><path class="cls-7" d="M881.38,96l-2.14,3,5.13,2a19.93,19.93,0,0,0,3.62,1.18l1.69.45L891,99.4a40.33,40.33,0,0,1-4.94-1.5Z"/><path class="cls-7" d="M869.08,88.16l-3.1,2.4,4.12,3.17a30.47,30.47,0,0,0,4.48,2.83l2.47-2.82a24,24,0,0,1-4.19-2.61Z"/><path class="cls-7" d="M860.35,77.62l-3.78,1.56s1.28,2.06,2.58,4.12L862.5,87l3.34-2.12s-1.56-1.72-3.12-3.46Z"/><polygon class="cls-7" points="854.6 64.98 850.93 66.94 854.17 75.13 858.07 73.78 854.6 64.98"/><path class="cls-7" d="M848.88,52.08l-3.12,2.78,2.08,4c.92,2,1.61,4.11,1.61,4.11l3.47-2.26a42.72,42.72,0,0,0-1.77-4.38Z"/><path class="cls-7" d="M840,40.52l-2.37,3.42s1.67,1.66,3.17,3.43c1.32,1.87,2.64,3.72,2.64,3.72l2.91-3s-1.47-2-2.91-4C841.86,42.28,840,40.52,840,40.52Z"/><path class="cls-7" d="M827.6,31.46l-1.51,3.87s2.18,1.24,4.31,2.5,3.85,3,3.85,3l2.11-3.6s-2-1.6-4.12-3.1Z"/><path class="cls-7" d="M812,26.74l-.47,4.09c.09-.41,10.22,2.17,10,2.52l1.17-4C822.9,29,812.09,26.33,812,26.74Z"/><path class="cls-7" d="M795.34,27.34l.55,4.07,5.2-.81c2.64-.1,5.28-.17,5.28-.17l.15-4.12s-2.85,0-5.65.17C798.1,26.93,795.34,27.34,795.34,27.34Z"/><path class="cls-7" d="M780.22,33.07l1.54,3.81c-.2-.24,9-4.45,9.23-4.11l-.88-4C789.91,28.4,780,32.8,780.22,33.07Z"/><path class="cls-7" d="M768.1,42.43l2.41,3.33s.42-.41,1-1a20,20,0,0,1,2.36-2.24l3.78-3-1.83-3.68L771.76,39a19.49,19.49,0,0,0-2.55,2.36Z"/><path class="cls-7" d="M759.24,54l3.12,2.67s1.21-1.92,2.36-3.84c1.38-1.84,2.78-3.67,2.78-3.67L764.82,46l-3,3.9C760.54,52,759.24,54,759.24,54Z"/><path class="cls-7" d="M752.84,66.74l3.68,1.85s.9-2,1.8-4.06,2-4,2-4l-3.35-2.42s-1.16,2.12-2.14,4.28Z"/><path class="cls-7" d="M747.38,79.65l4,1.19s1-2.12,1.81-4.16l1.71-4.11L751.05,71s-.92,2.16-1.84,4.34S747.38,79.65,747.38,79.65Z"/><path class="cls-7" d="M740.76,91.4l3.59,1.81s1.48-2,2.75-4.06S749.4,85,749.4,85l-3.91-1.31-2.17,4C742.12,89.57,740.76,91.4,740.76,91.4Z"/><path class="cls-7" d="M730.3,100.42l2.36,2.88c.36.38,8.94-6.06,8.48-6.36l-3.33-2.15C738.19,95.09,730.62,100.79,730.3,100.42Z"/><path class="cls-7" d="M716,104.8l.72,3.39,5.59-.93c2.71-.8,5.4-1.7,5.4-1.7l-1.78-3.13-4.8,1.52Z"/><path class="cls-7" d="M700.23,105.22l-.26,3.44,5.58.28,5.64-.25-.32-3.43-5.29.23Z"/><path class="cls-3" d="M851.36,366.5c0,8.27-8.65,15-19.31,15H391.54c-10.66,0-19.32-6.7-19.32-15V150.31c0-8.28,8.66-15,19.32-15H832.05c10.66,0,19.31,6.71,19.31,15Z"/><rect class="cls-2" x="395.48" y="162.18" width="431.3" height="206.74"/><rect class="cls-3" x="321.47" y="368.91" width="575.6" height="25.13"/><path class="cls-8" d="M208.14,31.65l-.45-2.5a77.92,77.92,0,0,0-8.34,1.47l.94,2.39A75.13,75.13,0,0,1,208.14,31.65Z"/><path class="cls-8" d="M220.09,31.27l.26-2.5a69.36,69.36,0,0,0-8.53,0l.24,2.49A71.71,71.71,0,0,1,220.09,31.27Z"/><path class="cls-8" d="M231.45,33.61l1.31-2.29c.12-.27-8.19-2.38-8.25-2.1L224,31.69C224.05,31.44,231.59,33.37,231.45,33.61Z"/><path class="cls-8" d="M240.43,39.38l2.48-1.52a24,24,0,0,0-3-2.63A19.25,19.25,0,0,0,236.5,33l-1.72,2.1a17.86,17.86,0,0,1,3,2A18.4,18.4,0,0,1,240.43,39.38Z"/><path class="cls-8" d="M245.36,48.06l2.95-.81c.39,0-2.88-6.54-3.06-6.47L242.54,42C242.69,41.91,245.67,47.87,245.36,48.06Z"/><path class="cls-8" d="M248.41,58.07l2.71-1.32a9.78,9.78,0,0,1-.43-1c-.17-.59-.38-1.39-.6-2.18-.44-1.59-.89-3.18-.89-3.18l-2.92.88,1,3.39c.24.86.5,1.71.69,2.34A6.16,6.16,0,0,0,248.41,58.07Z"/><path class="cls-8" d="M254.88,66.94l2.2-1.91a13.37,13.37,0,0,1-2.48-2.53,22.51,22.51,0,0,1-2-2.79L250,61.23a20.49,20.49,0,0,0,2.2,3A14.63,14.63,0,0,0,254.88,66.94Z"/><path class="cls-8" d="M265.5,72.52,267,70.21a27.69,27.69,0,0,1-3.66-1.31A20.55,20.55,0,0,1,260,67.16l-2,2.06a21.28,21.28,0,0,0,3.57,1.88A32,32,0,0,0,265.5,72.52Z"/><path class="cls-8" d="M278,74.43l.61-2.5s-2-.14-4-.26l-3.92-.57-1.23,2.4s2.1.33,4.22.63Z"/><path class="cls-8" d="M290.81,74.13l-.24-2.52s-2,.18-4,.26-4,.11-4,.11l-.31,2.52s2.15,0,4.3-.12S290.81,74.13,290.81,74.13Z"/><polygon class="cls-8" points="303.14 73.02 302.82 70.51 294.56 71.29 294.92 73.79 303.14 73.02"/><path class="cls-8" d="M314.2,74.1l1.49-2.21a18.84,18.84,0,0,0-4.19-1.35,17.1,17.1,0,0,0-3.22-.35l-1.33,0,.14,2.52s.49,0,1.26-.05a12.84,12.84,0,0,1,2.39.27A15.54,15.54,0,0,1,314.2,74.1Z"/><path class="cls-8" d="M321.17,81l2.9-.88s-.23-.42-.54-1a11,11,0,0,0-1.43-2.21A16.56,16.56,0,0,0,319.28,74l-2.16,1.84a12.34,12.34,0,0,1,2.36,2.36A15.45,15.45,0,0,1,321.17,81Z"/><path class="cls-8" d="M322.86,90.43l3.09,0a4.41,4.41,0,0,0,0-1.08c-.05-.65-.09-1.53-.14-2.4a13.67,13.67,0,0,0-.37-2.39c-.13-.66-.21-1.1-.21-1.1l-3,.51.2,1a13.56,13.56,0,0,1,.33,2.19c.06.81.11,1.63.13,2.23A4.71,4.71,0,0,1,322.86,90.43Z"/><rect class="cls-5" x="480.5" y="4.42" width="267.2" height="355.62"/><rect class="cls-6" x="480.5" y="4.42" width="267.2" height="36.1"/><path class="cls-9" d="M713,105.82c0,10-9.93,18.06-22.19,18.06h-156c-12.25,0-22.17-8.08-22.17-18.06h0c0-9.94,9.92-18,22.17-18h156c12.26,0,22.19,8.08,22.19,18Z"/><path class="cls-9" d="M713,169.29c0,10-9.93,18.06-22.19,18.06h-156c-12.25,0-22.17-8.09-22.17-18.06h0c0-10,9.92-18,22.17-18h156c12.26,0,22.19,8.08,22.19,18Z"/><path class="cls-7" d="M670.15,224.06c0,8.6-8.56,15.54-19.12,15.54H574.55c-10.55,0-19.12-6.94-19.12-15.54h0c0-8.6,8.57-15.56,19.12-15.56H651c10.56,0,19.12,7,19.12,15.56Z"/><path class="cls-7" d="M713,63.54c0,3.77-3.77,6.84-8.43,6.84H521c-4.65,0-8.41-3.07-8.41-6.84h0c0-3.8,3.76-6.85,8.41-6.85H704.56c4.66,0,8.43,3.05,8.43,6.85Z"/><rect class="cls-9" x="491.19" y="13.13" width="39.77" height="3.73"/><rect class="cls-9" x="491.19" y="20.6" width="39.77" height="3.73"/><rect class="cls-9" x="491.19" y="28.06" width="39.77" height="3.74"/><path class="cls-10" d="M542.12,176c0,2.5-2.5,4.52-5.57,4.52S531,178.5,531,176s2.5-4.54,5.58-4.54S542.12,173.49,542.12,176Z"/><path class="cls-10" d="M559.34,176c0,2.5-2.5,4.52-5.58,4.52s-5.58-2-5.58-4.52,2.5-4.54,5.58-4.54S559.34,173.49,559.34,176Z"/><path class="cls-10" d="M576.56,176c0,2.5-2.5,4.52-5.57,4.52s-5.59-2-5.59-4.52,2.5-4.54,5.59-4.54S576.56,173.49,576.56,176Z"/><path class="cls-10" d="M593.78,176c0,2.5-2.5,4.52-5.58,4.52s-5.59-2-5.59-4.52,2.5-4.54,5.59-4.54S593.78,173.49,593.78,176Z"/><path class="cls-10" d="M611,176c0,2.5-2.49,4.52-5.57,4.52s-5.58-2-5.58-4.52,2.49-4.54,5.58-4.54S611,173.49,611,176Z"/><path class="cls-10" d="M628.2,176c0,2.5-2.5,4.52-5.57,4.52s-5.58-2-5.58-4.52,2.5-4.54,5.58-4.54S628.2,173.49,628.2,176Z"/><path class="cls-11" d="M901.37,108.42c0-21.66-30-39.22-67-39.22s-71.23,24.24-71.23,45.9c0,21.25,33.1,31.86,69.15,32.5-1,12.1-21.09,17.84-21.09,17.84C851.52,168.59,901.37,143.42,901.37,108.42Z"/><path class="cls-9" d="M815.54,98c0-1.37,0-2.54-.11-3.51h3.65l.2,1.51h.08a5.27,5.27,0,0,1,4.17-1.75c2.77,0,4.84,1.48,4.84,4.72v6.52h-4.21V99.44c0-1.42-.6-2.38-2.11-2.38a2.23,2.23,0,0,0-2.14,1.27,2,2,0,0,0-.17.86v6.34h-4.2Z"/><path class="cls-9" d="M844.9,99.91c0,4-3.5,5.87-7.13,5.87-3.95,0-7-2.12-7-5.67s2.88-5.82,7.22-5.82C842.14,94.29,844.9,96.6,844.9,99.91Zm-9.77.11c0,1.89,1,3.31,2.76,3.31,1.62,0,2.67-1.33,2.67-3.31,0-1.64-.78-3.3-2.67-3.3S835.13,98.41,835.13,100Z"/><path class="cls-9" d="M852,91.39v3.14h3v2.53h-3v4c0,1.33.4,1.93,1.67,1.93a9.36,9.36,0,0,0,1.24-.08l0,2.58a9.9,9.9,0,0,1-2.74.3,5,5,0,0,1-3.16-1,4,4,0,0,1-1.15-3.26V97.06H846.1V94.53h1.79V92.15Z"/><path class="cls-9" d="M800.41,122.4v-8.48h-1.78v-2.51h1.78V111a4.54,4.54,0,0,1,1.7-3.69,6.31,6.31,0,0,1,3.74-1.1,10.16,10.16,0,0,1,2.24.22l-.16,2.64a5.48,5.48,0,0,0-1.35-.16,1.79,1.79,0,0,0-2,2v.57h2.71v2.51h-2.69v8.48Z"/><path class="cls-9" d="M822.25,116.78c0,4-3.51,5.87-7.14,5.87-4,0-7-2.11-7-5.66s2.88-5.83,7.22-5.83C819.48,111.16,822.25,113.47,822.25,116.78Zm-9.79.11c0,1.89,1,3.31,2.76,3.31,1.63,0,2.69-1.33,2.69-3.31,0-1.64-.78-3.3-2.69-3.3S812.46,115.28,812.46,116.89Z"/><path class="cls-9" d="M837.4,118.87c0,1.44.06,2.61.11,3.53h-3.65l-.19-1.55h-.08a5.21,5.21,0,0,1-4.25,1.8c-2.72,0-4.75-1.39-4.75-4.79v-6.45h4.23v5.91c0,1.6.65,2.56,2.11,2.56a2.25,2.25,0,0,0,2.09-1.19,1.58,1.58,0,0,0,.14-.74v-6.54h4.24Z"/><path class="cls-9" d="M840.57,114.91c0-1.37-.05-2.54-.09-3.5h3.63l.2,1.5h.08a5.32,5.32,0,0,1,4.18-1.75c2.76,0,4.84,1.49,4.84,4.72v6.52h-4.2v-6.09c0-1.42-.61-2.39-2.12-2.39a2.24,2.24,0,0,0-2.14,1.29,2,2,0,0,0-.16.85v6.34h-4.22Z"/><path class="cls-9" d="M869.69,106.44v12.68c0,1.23,0,2.54.11,3.28h-3.73l-.18-1.62h-.06a5.07,5.07,0,0,1-4.24,1.87,5.51,5.51,0,0,1-5.77-5.65c0-3.7,2.82-5.84,6-5.84a4.57,4.57,0,0,1,3.57,1.24h0v-6Zm-4.2,9.62a5.82,5.82,0,0,0,0-.6,2.42,2.42,0,0,0-2.46-1.69,2.83,2.83,0,0,0-2.9,3.12,2.76,2.76,0,0,0,2.88,3,2.38,2.38,0,0,0,2.42-1.64,2.52,2.52,0,0,0,.11-.79Z"/><path class="cls-8" d="M1068.75,309.8c-.07-3.58,3.48-6.53,7.88-6.57s8,2.82,8.07,6.4-3.48,6.54-7.87,6.58S1068.81,313.38,1068.75,309.8Zm13.76-.14c0-2.6-2.67-4.68-5.86-4.66s-5.76,2.19-5.71,4.78,2.67,4.68,5.87,4.63S1082.55,312.26,1082.51,309.66Z"/><path class="cls-7" d="M1078.87,236.24l1.49,1.31-6.84,5.14a3.61,3.61,0,0,0-.3,5.8l5,4.47a5.29,5.29,0,0,1,1.9,4.25,5.57,5.57,0,0,1-2.36,4.09l-4.58,3.38a3.86,3.86,0,0,0-1.64,2.88,3.66,3.66,0,0,0,1.37,3l4.54,3.92a5.26,5.26,0,0,1,2,4.41,5.64,5.64,0,0,1-2.62,4.18l-3.12,2.08a3.91,3.91,0,0,0-1.84,3.09,3.83,3.83,0,0,0,1.69,3.16l6.53,4.74-1.46,1.34-6.54-4.75a5.21,5.21,0,0,1,.23-8.94l3.11-2.1a3.89,3.89,0,0,0,1.83-2.91,3.64,3.64,0,0,0-1.36-3.08l-4.53-3.92a5.24,5.24,0,0,1-2-4.27,5.52,5.52,0,0,1,2.36-4.13l4.57-3.38a3.83,3.83,0,0,0,1.63-2.85,3.63,3.63,0,0,0-1.31-3l-5-4.48a5.18,5.18,0,0,1,.42-8.31Z"/><path class="cls-12" d="M809.42,363.21c3.38-3.14,3.25-3.62,2.3-4.63a23.41,23.41,0,0,0-2.81-2.53l7.46-3.7a26.42,26.42,0,0,1,3.22,5.89C819,358.82,814.64,363.52,809.42,363.21Z"/><path class="cls-13" d="M819.59,358.24a.26.26,0,0,1,.08-.12c4.22,5.14-5.44,8.19-11.11,8.86s.86-3.77.86-3.77C814.64,363.52,819,358.82,819.59,358.24Z"/><path class="cls-7" d="M818.65,351.23c1,3-7.07,7.69-9.34,6.12-19.52-13.48-40.4-42.84-48.18-54.85-.35-.53-.69-1-1-1.48-3.89-5.18-6.12-4.11-19.31-28.09-4.29-7.74-6.88-21.3-6.88-21.3l13.1-4.41,30.14-10.31c10.46,8.11,14,31.54,16.26,41,1.87,8,4.05,21,6.11,27.23C806.83,327,812.08,331.4,818.65,351.23Z"/><path class="cls-12" d="M733,369.08c4.73-1.7,4.83-2.19,4.51-3.42a24.38,24.38,0,0,0-1.25-3.24l8.66-.83a24.05,24.05,0,0,1-.12,6.45C744,368.37,737.64,371.13,733,369.08Z"/><path class="cls-13" d="M744.83,368a.84.84,0,0,1,.15-.1c1.21,6.14-9.13,5.6-14.62,4.28s2.67-3.14,2.67-3.14C737.64,371.13,744,368.37,744.83,368Z"/><path class="cls-11" d="M762.24,286.17c-2.42,7.94-7.84,16.12-7.84,27.26,0,22.67-2.61,27.69-6.76,47.92-.47,2.34-6.58,3.82-9.86,3.28a3.53,3.53,0,0,1-1.26-.4,1.11,1.11,0,0,1-.62-.5c-10.76-18.86-18-51-18.95-64.52-.56-8-.3-7,.06-35.46.09-8.51,4.65-21.7,4.65-21.7l43.47,1.14C770.48,254.13,765,276.79,762.24,286.17Z"/><path class="cls-9" d="M737.78,364.63a3.53,3.53,0,0,1-1.26-.4c-6.58-14.93-9.41-30.81-11.83-44.55-2.08-11.63-4.39-24.87-4.46-37.87,0-14.22,2.78-26.77,8.4-37.3a.55.55,0,0,1,.66-.21.41.41,0,0,1,.29.55c-5.56,10.39-8.38,22.86-8.33,37,0,13,2.37,26.15,4.45,37.8C728.17,333.47,731.05,349.59,737.78,364.63Z"/><path class="cls-12" d="M705.5,157.73s-2.86-5.86-9-7.43c-5.55-1.4-1.88,4.25,3.9,10.11Z"/><path class="cls-14" d="M768.29,188.91c4.51,2.05,4.75,5.73.29,10.14-6.85,6.76-15.39,2.7-31.73-3.25-18.56-6.77-37.55-36-37.55-36s.93-3.81,5.55-3.21c0,0,14.36,15.49,32.68,22.36C746.54,182.38,758.8,184.6,768.29,188.91Z"/><path class="cls-15" d="M739.18,185.13c-8.41,5.22-15.58,18-18.93,59.61-.72,9.15,64.57,11.36,64.81,2.17.58-24.43-4.56-34.48-13.14-56.51C769.56,184.41,755.81,174.7,739.18,185.13Z"/><path class="cls-12" d="M680.19,167.48s2.21-13.36-1.57-9.76-7.81,4.17-4.32,11.14Z"/><path class="cls-14" d="M744,189.91c6.68,7.58,2.37,13.48-3.46,16.67-8.92,4.9-24.84,11.1-43.56,4.64s-23.42-43.15-23.42-43.15a5.23,5.23,0,0,1,6.43-1.78s9.83,27.53,27.8,30.11C716.43,197.65,737.6,182.73,744,189.91Z"/><path class="cls-16" d="M756.71,174.57s3.08,10.56.54,13-16.07,0-15.42-4a53.53,53.53,0,0,1,2.56-9.69Z"/><path class="cls-12" d="M764.31,163.69c0,9.3-6.4,16.83-14.27,16.83-3.54,0-11.41.79-13.9-1.71-3.07-3.09-3.09-11-1.32-15.92,4.06-11.36,10-15.1,17.85-15.1S764.31,154.4,764.31,163.69Z"/><path class="cls-8" d="M750.81,181.59c4.94.22,13.23-1.18,17.82-9.45,4.19-7.56,1.78-20.17-7.6-24a27.33,27.33,0,0,0-19.23-.31c-8.62,3.34-7.51,7.6-5.77,8.3,3.63,1.45,6.48-.86,5.77,3.17-.55,3.12-.26,10,3.29,10.39s6.57.43,5.72,4.62C750.16,177.44,745.81,181.39,750.81,181.59Z"/><path class="cls-8" d="M722.57,247.68s50.88,10.63,62.49-.77l2.69,8S756.52,264.6,722.57,247.68Z"/><path class="cls-12" d="M933.64,358.05c7.25,11.19,20.61,24.89,24,33,.53,1.29.49,1.82-4.33,4.08s.87,3.75,9.8,1.93-6.25-35.87-15.46-51.43C939.59,332,925.23,345,933.64,358.05Z"/><path class="cls-13" d="M965.91,392.8s-7,4.22-12.63,2.31c0,0-8.52,2.68-2.46,3.59S968,399.24,965.91,392.8Z"/><path class="cls-7" d="M973.74,309.24s-47.34,2-58.11,10.57,36.77,69.76,36.77,69.76,12.06-3.14,12.09-10.58c.12-27.86-.48-37.05-.48-37.05l48.25-8.82Z"/><path class="cls-12" d="M1034.28,381.52c16.24-1.63,37.78-7.23,48.8-6.91,1.74.05,2.39.29,3.32,5s4.85.69,6-7.13-45.68-8.34-67.91-6.76C1005,367.08,1015.44,383.42,1034.28,381.52Z"/><path class="cls-13" d="M1088.29,368.63s2.47,7.2-1.89,11c0,0,.07,7.81,3.41,3.3S1096.88,369.33,1088.29,368.63Z"/><path class="cls-11" d="M989.51,321.08s-14.48,48.84-8.15,60.64,98-3.49,98-3.49.69-10.81-8.3-13.59c-33.62-10.46-45.29-9.28-45.29-9.28l4.4-42.16Z"/><path class="cls-9" d="M963.55,321.94c11.76-3,12.81-12.52,12.81-12.6l-1.55-.1c0,.35-1,8.71-11.75,11.49Z"/><path class="cls-9" d="M1025.3,339.84l.47-1.21c-10.78-2.79-11.72-11.4-11.73-11.5l-1.57.1C1012.49,327.34,1013.54,336.8,1025.3,339.84Z"/><path class="cls-12" d="M1014.39,267.61c-1.06-1.91-6.33-6.43-13.37-4.94-9.43,2-24,12.95-36.92,10S948.92,262.58,946.65,258s-.48-7.34-2.16-9.92-5.37-.83-4,7.32c.69,3.89,1.22,23.47,15.84,29.29C975.56,292.27,1020.47,278.92,1014.39,267.61Z"/><path class="cls-14" d="M1013.44,263.56s6.13,7.11-6.61,14.81S987.26,288,987.26,288s-8.39-5-12.62-17.79C974.64,270.21,1006.61,252.57,1013.44,263.56Z"/><path class="cls-15" d="M1040.23,268.7v0c-4.36-3.44-10.76-5.44-15.66-7-10.79-3.48-29.37-6.34-38.28,8.71-2.92,5-5.88,12.52-8,20.45-.49,1.73-.95,3.48-1.27,5.25-1.73,7.81-6.31,12.28-4.32,16.93,5.06,11.73,51.09,32.61,60.12,7.67,1.34-3.72,4.93-27.43,7.89-31.89C1047.41,278.86,1045.28,272.79,1040.23,268.7Z"/><path class="cls-16" d="M1025.77,250.21s-5.78,6.23-.75,11-21.42,11.08-19.76,7.13c2.1-5.09,6.19-7.64,4.61-14.18Z"/><path class="cls-12" d="M1015.63,234.73c-6.58,3.26-17.23,20.68-12.53,25.73,2,2.19,12.87,2,21.47-5,3.55-2.85,8.48-8.53,6-15.5C1029.39,236.76,1023.24,231,1015.63,234.73Z"/><path class="cls-8" d="M1009.47,236c-1.8,2.12-1.59,2.7,6.69,5.23s9.86,2.32,8.57,3.83c-3.82,4.44,2.52,4.52-2.11,9.8s3.46,3,7.86-1.23c.85-.86,5.67-4.91,3.38-12.86C1031.21,231.48,1016.15,228.27,1009.47,236Z"/><polygon class="cls-8" points="1035.01 346.52 1050.33 333.21 932.59 243.5 917.27 256.82 1035.01 346.52"/><path class="cls-8" d="M888.59,233.23l29.74,22.66,13.19-11.46-29.9-22.76c12.56-6.13,29-5.06,40.26,3.48,13.57,10.34,14.28,27.66,1.57,38.69s-34,11.61-47.56,1.27C884.89,256.72,882.36,243.72,888.59,233.23Z"/><path class="cls-12" d="M1041,270.17c-2-1.15-7.62-2.11-12.43,2-6.45,5.45-11.57,20.27-23.89,23.12s-18.54-2.06-23.22-4.91-4.9-5.77-7.85-7.19-4.86,1.51,1.29,7.55c3,2.89,15.37,18.6,30.83,17.4C1026,306.54,1052.9,276.88,1041,270.17Z"/><path class="cls-14" d="M1039.42,268.75s9.33,3.3,3.7,14.74-10,15.76-10,15.76-9.89-.66-21.17-9.35C1011.94,289.9,1027.11,262.58,1039.42,268.75Z"/><rect class="cls-11" x="298.05" y="151.69" width="162.88" height="151.33"/><rect class="cls-7" x="298.05" y="151.69" width="162.88" height="12.26"/><path class="cls-9" d="M447.77,158.26a3.13,3.13,0,1,0,3.12-2.84A3,3,0,0,0,447.77,158.26Z"/><path class="cls-9" d="M438.4,158.26a3.13,3.13,0,1,0,3.12-2.84A3,3,0,0,0,438.4,158.26Z"/><path class="cls-9" d="M429,158.26a3.13,3.13,0,1,0,3.11-2.84A3,3,0,0,0,429,158.26Z"/><rect class="cls-7" x="316.75" y="205.94" width="127.94" height="8.06"/><rect class="cls-7" x="316.75" y="179.88" width="127.94" height="23.16"/><rect class="cls-7" x="316.75" y="217.43" width="127.94" height="8.06"/><rect class="cls-7" x="316.75" y="228.91" width="127.94" height="8.06"/><rect class="cls-7" x="316.75" y="241.27" width="127.94" height="22.46"/><rect class="cls-7" x="316.75" y="270.51" width="127.94" height="22.45"/><path class="cls-15" d="M379.31,340.35H349.26v15.77h33.56v12.32h-52.1V302h50.42v12.33H349.26v13.81h30.05Z"/><path class="cls-15" d="M397,302.88a198.24,198.24,0,0,1,24.59-1.39c12.13,0,20.62,1.49,26.4,5.23a15.69,15.69,0,0,1,7.53,13.9c0,8.49-7.38,14.3-14.41,16.37v.29c5.7,1.88,8.84,6.31,10.9,12.42,2.55,7.51,5.09,16.18,6.67,18.74H439.81c-1.35-1.87-3.26-7.29-5.68-15.47-2.19-8.29-5.7-10.55-13.23-10.66h-5.55v26.13H397Zm18.31,28.58h7.26c9.19,0,14.66-3.74,14.66-9.56,0-6.1-5.09-9.16-13.59-9.26a55.12,55.12,0,0,0-8.33.5Z"/><path class="cls-15" d="M470.51,302.88a198.42,198.42,0,0,1,24.6-1.39c12.12,0,20.61,1.49,26.41,5.23a15.76,15.76,0,0,1,7.54,13.9c0,8.49-7.4,14.3-14.43,16.37v.29c5.7,1.88,8.85,6.31,10.91,12.42,2.54,7.51,5.09,16.18,6.67,18.74H513.28c-1.33-1.87-3.26-7.29-5.7-15.47-2.16-8.29-5.67-10.55-13.2-10.66h-5.57v26.13h-18.3Zm18.3,28.58h7.27c9.21,0,14.68-3.74,14.68-9.56,0-6.1-5.12-9.16-13.59-9.26a56,56,0,0,0-8.36.5Z"/><path class="cls-15" d="M618.28,334.52c0,21.79-16.24,35-40.13,35-24.24,0-38.41-14.89-38.41-33.81,0-19.92,15.64-34.82,39.76-34.82C604.58,300.9,618.28,316.19,618.28,334.52Zm-59,.89c0,13,7.53,22.18,19.9,22.18s19.59-9.66,19.59-22.57c0-11.93-7-22.19-19.75-22.19C566.53,312.83,559.25,322.5,559.25,335.41Z"/><path class="cls-15" d="M632,302.88a198,198,0,0,1,24.56-1.39c12.14,0,20.63,1.49,26.43,5.23a15.73,15.73,0,0,1,7.53,13.9c0,8.49-7.4,14.3-14.42,16.37v.29c5.7,1.88,8.82,6.31,10.91,12.42,2.53,7.51,5.07,16.18,6.67,18.74H674.78c-1.33-1.87-3.26-7.29-5.67-15.47-2.19-8.29-5.7-10.55-13.23-10.66h-5.55v26.13H632Zm18.3,28.58h7.25c9.21,0,14.66-3.74,14.66-9.56,0-6.1-5.1-9.16-13.6-9.26a54.88,54.88,0,0,0-8.31.5Z"/><path class="cls-12" d="M248.29,196.63c1.71-1.81,8.77-5.5,15.77-2.43,9.38,4.09,21.37,18.81,36.06,18.42s19.34-7.54,23.24-12,2.84-7.71,5.45-10.09,6,.24,1.86,8.6c-1.95,4-8.75,24.71-26.16,27.81C281.73,231,238.21,207.37,248.29,196.63Z"/><path class="cls-17" d="M250.56,192.52s-8.75,6.26,2.31,17.13S270.63,224,270.63,224s10.49-3.56,19.06-16.26C289.69,207.77,261.36,182.27,250.56,192.52Z"/><path class="cls-7" d="M215.05,214.28c6.51,19.56,2.92,33.31,0,40.75,6.79,1.78,2.75,4.73,2.57,5.11-9.6,16.2,50,6.61,60.52-6.51,3.6-4.51.15-10.24.8-18.89a57.84,57.84,0,0,0,.32-5.86c.3-8.87-.44-17.52-2-23.42-4.68-17.87-25.34-18.75-37.91-17.32-5.71.65-13.17,1.43-18.88,4.17l0,0C213.78,195.63,210.23,199.74,215.05,214.28Z"/><path class="cls-12" d="M238.3,175.18s5.64,7.21-.36,12c-6.16,4.91,22.16,13.6,20.8,9.18-1.75-5.72-5.94-8.77-3.53-15.8Z"/><path class="cls-12" d="M251,159c6.81,4,16.54,23.77,10.91,28.95-2.51,2.25-14.27,1.22-22.9-7-3.56-3.37-8.32-9.91-4.84-17.34C235.81,160.26,243.14,154.37,251,159Z"/><path class="cls-8" d="M257.61,160.85c1.74,2.43,1.46,3.05-7.85,5.22s-11,1.83-9.77,3.56c3.7,5.12-3.24,4.77,1.26,10.85s-4.1,3-8.43-1.9c-.85-1-5.67-5.76-2.32-14.27C234.38,154.39,251.16,152,257.61,160.85Z"/><path class="cls-12" d="M199.65,329.56c-6,19-13,59.61-1.5,59.84s17.87-2.61,11.26-4.12-6.88-2.1-6.68-3.62c2.85-19.6,40.53-50.17,43.73-73.47,1.07-8,1.81-15.24,2.33-21.63,4.28,17.08,1.13,35.19,1.5,41.17,1.2,21.31,6.81,61.59,19.37,61.67,13.36.07,19.92-2.94,11.38-4.37-7.38-1.28-7.07-1.55-6.94-3,1.79-21.51,14.62-61.28,17.07-86.84C294,265.65,204.85,313,199.65,329.56Z"/><path class="cls-18" d="M262.61,384.56s10,3.22,16.13,0c0,0,11.23,1.23,4.19,3.45S262.19,392.08,262.61,384.56Z"/><path class="cls-18" d="M193.28,385.28s10,3.2,16.13,0c0,0,11.24,1.25,4.16,3.46S192.86,392.82,193.28,385.28Z"/><path class="cls-8" d="M282.31,245c-22.85,12.4-54.81,11.13-67.26,9.17-3.37,22.12-23.79,105.1-26.1,116.49,10,2.72,13.38,3.28,16.28,3.28,48.45-50.82,42.88-72.62,43.38-79,1.83,7.38-4.15,43.55,6.32,79,3.5,1.84,14.12,4.24,21.72,0,.39-2.27,14.6-43,14.29-74.89C290.73,277.36,286.27,262.43,282.31,245Z"/><path class="cls-9" d="M216.65,273c14.22-3.67,15.46-15.1,15.47-15.21l-1.89-.11c0,.42-1.18,10.51-14.16,13.86Z"/><path class="cls-9" d="M283.16,270.1l.57-1.47c-13-3.34-14.16-13.75-14.16-13.86l-1.89.12C267.69,255,268.94,266.44,283.16,270.1Z"/><path class="cls-3" d="M421.94,190.82,89.35,285.65c-8.37,2.38-12.87,9.55-10.09,16l9.35,21.7L451.47,219.9l-9.35-21.7C439.35,191.73,430.32,188.43,421.94,190.82Z"/><path class="cls-2" d="M146.81,288c-1.74-4,1.08-8.49,6.25-10s10.81.59,12.54,4.61-1.07,8.49-6.27,10S148.54,292,146.81,288Zm2.43-.7c1.26,2.93,5.41,4.42,9.24,3.33s6-4.38,4.71-7.3-5.44-4.41-9.28-3.32S148,284.38,149.24,287.31Z"/><path class="cls-2" d="M122,295.08c-1.74-4,1.07-8.49,6.25-10s10.78.6,12.53,4.62-1.08,8.48-6.27,10S123.74,299.1,122,295.08Zm2.42-.69c1.28,2.92,5.4,4.42,9.26,3.32s5.93-4.37,4.66-7.29-5.42-4.42-9.26-3.34S123.18,291.46,124.43,294.39Z"/><path class="cls-2" d="M97.94,301.94c-1.72-4,1.08-8.49,6.23-9.95s10.79.59,12.52,4.6-1.06,8.48-6.23,10S99.67,306,97.94,301.94Zm2.43-.68c1.25,2.92,5.4,4.41,9.24,3.32s5.93-4.37,4.66-7.3-5.4-4.42-9.25-3.32S99.12,298.32,100.37,301.26Z"/><path class="cls-12" d="M224.4,194.06a8.69,8.69,0,0,1,6.06,10.15c-1.6,8.16-14.17,21.55-9.16,32.2s14.42,11.82,20.55,13.29,9.43-.31,12.89.85,1.59,4.48-9,4.06c-5.05-.19-30.1,1.29-39-10.5C195.18,228.66,209.36,190,224.4,194.06Z"/><path class="cls-17" d="M224.25,190.85s-7-1.07-15.55,10.48-10.37,17.49-10.37,17.49,7.22,6.59,24,8.92C222.3,227.74,241.17,197.59,224.25,190.85Z"/><path class="cls-15" d="M323.72,41.93c0-21.66,30-39.21,67-39.21S462,27,462,48.61c0,21.26-33.11,31.86-69.16,32.51C393.86,93.22,413.9,99,413.9,99,373.57,102.1,323.72,76.92,323.72,41.93Z"/><path class="cls-9" d="M370.71,41.87c0,4-3.51,5.87-7.13,5.87-3.95,0-7-2.11-7-5.67s2.88-5.82,7.22-5.82C368,36.25,370.71,38.56,370.71,41.87Zm-9.78.11c0,1.89,1,3.3,2.76,3.3,1.63,0,2.68-1.32,2.68-3.3,0-1.64-.77-3.31-2.68-3.31S360.93,40.36,360.93,42Z"/><path class="cls-9" d="M386.56,41.87c0,4-3.52,5.87-7.14,5.87-3.95,0-7-2.11-7-5.67s2.87-5.82,7.21-5.82C383.79,36.25,386.56,38.56,386.56,41.87Zm-9.78.11c0,1.89,1,3.3,2.75,3.3s2.69-1.32,2.69-3.3c0-1.64-.77-3.31-2.69-3.31S376.78,40.36,376.78,42Z"/><path class="cls-9" d="M389,40.18c0-1.45-.06-2.68-.12-3.69h3.65l.2,1.53h.05a5.66,5.66,0,0,1,4.5-1.77,5.44,5.44,0,0,1,5.62,5.59c0,4-3.12,5.9-6.15,5.9a4.65,4.65,0,0,1-3.5-1.26h-.06V52H389Zm4.19,2.59a2.64,2.64,0,0,0,.08.72,2.48,2.48,0,0,0,2.46,1.61A2.79,2.79,0,0,0,398.61,42a2.77,2.77,0,0,0-2.85-3.09,2.56,2.56,0,0,0-2.52,1.74,1.9,1.9,0,0,0-.08.6Z"/><path class="cls-9" d="M405.27,44.5a9.76,9.76,0,0,0,3.63.83c1.27,0,1.8-.35,1.8-.92s-.42-.84-2-1.26c-2.79-.76-3.86-2-3.84-3.31,0-2.05,2.16-3.59,5.5-3.59a10.71,10.71,0,0,1,3.81.63l-.74,2.35a8.07,8.07,0,0,0-2.93-.62c-1,0-1.6.34-1.6.89s.52.79,2.19,1.26c2.56.72,3.64,1.78,3.66,3.4,0,2.05-2,3.56-5.85,3.56a11.42,11.42,0,0,1-4.37-.77Z"/><path class="cls-15" d="M875.16,182.11,961.35,60.64c4.24-6,14.82-6,19.06,0l86.2,121.47c4.24,6-1.06,13.43-9.53,13.43H884.68c-8.47,0-13.77-7.46-9.52-13.43Z"/><path class="cls-9" d="M896.88,173.48l66.64-93.89c3.27-4.61,11.46-4.61,14.73,0l66.63,93.89c3.28,4.62-.82,10.38-7.37,10.38H904.25c-6.55,0-10.64-5.76-7.37-10.38Z"/><path class="cls-10" d="M961.79,160.54c0-4.19,3.59-7.2,8.76-7.2s8.57,3,8.66,7.2-3.41,7.21-8.66,7.21S961.79,164.67,961.79,160.54ZM965,149.38l-2.25-35.89h15.48l-2.14,35.89Z"/><text class="cls-19" transform="translate(25.96 95.94)">C<tspan class="cls-20" x="9.81" y="0">r</tspan><tspan x="15.15" y="0">eate of B</tspan><tspan class="cls-21" x="75.37" y="0">r</tspan><tspan x="80.63" y="0">and</tspan></text><g id="OBJECTS"><path class="cls-22" d="M57.34,59.33h-29V37A11.6,11.6,0,0,1,40,25.43H57.34a17,17,0,0,1,17,17h0A16.94,16.94,0,0,1,57.35,59.33Z"/><path class="cls-23" d="M30.88,47.33H57.6A16.7,16.7,0,0,1,74.29,64V77.56a3.67,3.67,0,0,1-3.68,3.68H28.36V49.85a2.52,2.52,0,0,1,2.52-2.52Z"/><circle class="cls-9" cx="51.33" cy="53.3" r="15.05"/><path class="cls-24" d="M56.67,58.36a7.36,7.36,0,1,1-.43-10.53,2.35,2.35,0,0,0,1.55.62h.15a2.4,2.4,0,0,0,1.61-4.17,12.21,12.21,0,1,0,.71,17.35,2.41,2.41,0,0,0-1.78-4h-.16A2.28,2.28,0,0,0,56.67,58.36Z"/><text class="cls-25" transform="translate(30.07 78.88)">C</text><text class="cls-26" transform="translate(33.81 78.88)">r</text><text class="cls-25" transform="translate(35.92 78.88)">eate of B</text><text class="cls-26" transform="translate(58.9 78.88)">r</text><text class="cls-25" transform="translate(60.98 78.88)">and</text></g></svg>